<svg width="119" height="120" viewBox="0 0 119 120" fill="none" xmlns="http://www.w3.org/2000/svg">
<rect width="119" height="120" rx="59.5" fill="white"/>
<path d="M9.539 29.324H41.109L12.696 87.767H40.647V90H9L37.49 31.48H9.539V29.324ZM33.563 22.317V24.55L25.709 22.933C24.477 23.1897 23.168 23.472 21.782 23.78C20.4473 24.088 19.1897 24.3447 18.009 24.55V22.317L25.709 20.7L33.563 22.317ZM65.1264 61.048H54.7314L48.2634 90H44.5674L58.5814 28.4H61.4304L75.3674 90H71.6714L65.1264 61.048ZM55.6554 57.352H64.2794C63.7147 55.1447 63.2271 53.0913 62.8164 51.192C62.4057 49.2927 61.9951 47.3677 61.5844 45.417L59.9674 38.102L55.6554 57.352ZM52.3444 20.007C52.3444 18.929 52.524 17.928 52.8834 17.004C53.294 16.08 53.833 15.2843 54.5004 14.617C55.2191 13.8983 56.0404 13.3337 56.9644 12.923C57.9397 12.5123 58.9664 12.307 60.0444 12.307C61.1224 12.307 62.1234 12.5123 63.0474 12.923C63.9714 13.3337 64.7671 13.8983 65.4344 14.617C66.1531 15.2843 66.7177 16.08 67.1284 17.004C67.5391 17.928 67.7444 18.929 67.7444 20.007C67.7444 22.2143 67.0001 24.0623 65.5114 25.551C64.0227 26.9883 62.2004 27.707 60.0444 27.707C57.8884 27.707 56.0661 26.9883 54.5774 25.551C53.0887 24.0623 52.3444 22.2143 52.3444 20.007ZM54.4234 20.007C54.4234 21.547 54.988 22.8817 56.1174 24.011C57.2467 25.1403 58.5557 25.705 60.0444 25.705C61.533 25.705 62.842 25.1403 63.9714 24.011C65.1007 22.8817 65.6654 21.547 65.6654 20.007C65.6654 18.467 65.1007 17.1323 63.9714 16.003C62.842 14.8737 61.533 14.309 60.0444 14.309C58.5557 14.309 57.2467 14.8737 56.1174 16.003C54.988 17.1323 54.4234 18.467 54.4234 20.007ZM78.8564 28.4H81.9364L106.114 80.375V28.4H109.656V90H106.576L82.3984 37.948V90H78.8564V28.4ZM97.0284 22.625C95.7964 23.1383 94.4874 23.395 93.1014 23.395C92.3314 23.395 91.5358 23.2923 90.7144 23.087C89.8931 22.8817 89.0718 22.625 88.2504 22.317V20.007C89.9444 20.777 91.5358 21.162 93.0244 21.162C93.8971 21.162 95.0264 20.9567 96.4124 20.546C97.4904 20.1867 98.6968 20.007 100.031 20.007C100.596 20.007 101.161 20.0583 101.725 20.161C102.341 20.2637 102.983 20.392 103.65 20.546V22.779C102.932 22.5737 102.29 22.4197 101.725 22.317C101.161 22.2143 100.622 22.163 100.108 22.163C99.1844 22.163 98.1578 22.317 97.0284 22.625Z" fill="black"/>
</svg>
