<svg width="114" height="114" viewBox="0 0 114 114" fill="none" xmlns="http://www.w3.org/2000/svg">
<rect width="114" height="114" rx="57" fill="white"/>
<path d="M10.077 26.4H40.877L11.309 87.23H40.877V88H10L39.568 27.17H10.077V26.4ZM33.485 20.24V21.01L25.785 19.47L18.085 21.01V20.24L25.785 18.7L33.485 20.24ZM64.1412 57.585H49.8962L42.5042 88H41.6572L56.6722 26.4H57.4422L72.4572 88H71.6102L64.1412 57.585ZM50.1272 56.815H63.9872L57.0572 28.325L50.1272 56.815ZM49.7422 18.161C49.7422 17.083 49.9476 16.0563 50.3582 15.081C50.7689 14.1057 51.3079 13.2587 51.9752 12.54C52.6939 11.8213 53.5152 11.2567 54.4392 10.846C55.3632 10.4353 56.3642 10.23 57.4422 10.23C58.5202 10.23 59.5212 10.4353 60.4452 10.846C61.3692 11.2567 62.1649 11.8213 62.8322 12.54C63.5509 13.2587 64.1156 14.1057 64.5262 15.081C64.9369 16.0563 65.1422 17.083 65.1422 18.161C65.1422 19.239 64.9369 20.2657 64.5262 21.241C64.1156 22.2163 63.5509 23.0633 62.8322 23.782C62.1649 24.4493 61.3692 24.9883 60.4452 25.399C59.5212 25.8097 58.5202 26.015 57.4422 26.015C56.3642 26.015 55.3632 25.8097 54.4392 25.399C53.5152 24.9883 52.6939 24.4493 51.9752 23.782C51.3079 23.0633 50.7689 22.2163 50.3582 21.241C49.9476 20.2657 49.7422 19.239 49.7422 18.161ZM50.5122 18.161C50.5122 19.1363 50.6919 20.0603 51.0512 20.933C51.4106 21.8057 51.8982 22.5757 52.5142 23.243C53.1302 23.859 53.8489 24.3467 54.6702 24.706C55.5429 25.0653 56.4669 25.245 57.4422 25.245C58.4176 25.245 59.3159 25.0653 60.1372 24.706C61.0099 24.3467 61.7542 23.859 62.3702 23.243C62.9862 22.5757 63.4739 21.8057 63.8332 20.933C64.1926 20.0603 64.3722 19.1363 64.3722 18.161C64.3722 17.1857 64.1926 16.2617 63.8332 15.389C63.4739 14.5163 62.9862 13.772 62.3702 13.156C61.7542 12.4887 61.0099 11.9753 60.1372 11.616C59.3159 11.2053 58.4176 11 57.4422 11C56.4669 11 55.5429 11.2053 54.6702 11.616C53.8489 11.9753 53.1302 12.4887 52.5142 13.156C51.8982 13.772 51.4106 14.5163 51.0512 15.389C50.6919 16.2617 50.5122 17.1857 50.5122 18.161ZM73.2393 26.4H74.0863L103.269 86.46V26.4H104.039V88H103.115L74.0093 28.017V88H73.2393V26.4ZM90.1023 18.315C88.4596 18.8797 86.7913 19.1363 85.0973 19.085C83.4546 19.0337 81.8889 18.7257 80.4003 18.161V17.391C81.8889 17.9557 83.4033 18.2637 84.9433 18.315C86.5346 18.3663 88.1516 18.1353 89.7943 17.622C91.1289 17.2627 92.4379 17.083 93.7213 17.083C95.0559 17.083 96.3393 17.2113 97.5713 17.468V18.238C95.1073 17.622 92.6176 17.6477 90.1023 18.315Z" fill="black"/>
</svg>
